<svg viewBox="0 0 512 512" xmlns="http://www.w3.org/2000/svg">
      <path d="M195.158 313.802c-4.247-1.762-8.031-.014-10.889 5.176-5.845 10.617-14.613 16.669-26.881 16.933-14.445.311-24.873-5.948-30.818-19.357-2.512-5.666-6.885-7.609-11.486-5.41-4.237 2.025-5.489 6.7-3.077 12.047 2.134 4.73 4.853 9.099 8.814 12.918 2.162 2.667 4.999 4.978 8.017 7.068 27.96 19.362 59.177 3.654 69.801-17.197 2.711-5.32 1.278-10.204-3.481-12.178z" />
      <path d="M445.354 35.474c-15.775-16.53-34.422-28.201-56.885-33.369-1.257-.289-3.266.268-3.26-2.105h-34c.123 2.09-1.616 1.768-2.766 2.024-24.323 5.419-44.031 18.46-60.427 36.82-2.322 2.6-4.404 3.156-7.767 2.571-20.15-3.505-39.495-.586-57.919 8.197-23.308 11.111-40.695 28.657-53.955 50.493-1.806 2.974-3.743 4.025-7.131 3.965-10.996-.194-21.998.019-32.996-.088-22.414-.219-42.407 6.766-59.465 21.1-23.425 19.684-35.757 44.772-34.265 75.819.455 9.476 1.569 18.924 2.543 28.369.322 3.122-.325 5.033-3.341 6.811-11.643 6.865-18.778 16.968-17.201 30.84 1.619 14.242 10.445 23.448 23.965 27.868 2.813.92 4.035 2.286 4.713 4.965 3.287 12.996 8.492 25.241 15.036 36.909 10.212 18.209 22.761 34.467 42.57 42.756 8.154 3.412 10.466 7.914 9.586 16.039-.415 3.837-1.539 4.703-5.059 4.605-7.827-.216-15.667-.207-23.495-.031-11.479.258-22.998-.935-34.434.912C24.6 404.949 3.622 424.663.797 448.191c-1.402 11.673-.505 23.626-.573 35.452-.059 10.262 2.04 12.352 12.162 12.352 95.992.002 191.985.002 287.977.002.833 0 1.667.015 2.5-.006 6.269-.159 9.199-2.991 9.327-9.169.087-4.165.052-8.333.014-12.499-.094-10.327.782-20.783-.535-30.954-3.104-23.974-26.468-43.049-52.007-43.33-15.83-.175-31.664-.036-47.496-.039-13.348-.003-13.299.002-11.992-13.49.191-1.974.97-2.985 2.712-3.656 21.563-8.313 36.528-23.879 47.823-43.501.927-1.609 1.44-4.031 4.168-3.571 2.808.473 2.208 3 2.621 4.789 6.109 26.443 27.506 46.806 54.358 50.674 14.204 2.046 28.622.62 42.939.628 4.499.003 5.536 1.34 5.511 5.65-.178 30.497-.143 60.995-.062 91.492.02 7.761-1.384 15.76 2.967 22.984h10c4.354-7.215 2.945-15.207 2.966-22.96.082-29.635.027-59.271.038-88.906.002-5.74.307-6.003 5.36-3.5 17.542 8.689 26.092 23.235 26.549 42.461.392 16.473 0 32.964.127 49.446.061 7.914-1.466 16.078 2.96 23.46h10c4.423-7.385 2.898-15.551 2.961-23.467.126-15.653.042-31.308.036-46.963-.009-27.33-16.689-51.727-42.376-61.336-4.271-1.598-5.802-3.451-5.748-8.118.271-23.812.149-47.628.097-71.442-.006-2.858-.003-5.029 3.812-5.534 31.977-4.227 56.172-21.387 75.312-46.359 47.463-61.929 42.909-157.914-9.951-213.307zM40.287 277.569c-2.037.88-3.468-1.385-4.69-2.857-4.452-5.362-4.604-15.471-.371-20.96.768-.996 1.478-2.569 2.99-2.129 1.35.393.856 1.982.954 3.064.447 4.948.815 9.904 1.211 14.857a6.409 6.409 0 01-.138.011c.087 1.157.264 2.315.24 3.47-.032 1.57 1.406 3.851-.196 4.544zm11.942-99.019c4.49-19.761 15.077-35.383 32.116-46.438 11.732-7.612 24.731-11.539 38.674-11.964 10.156-.309 20.329-.051 30.493-.175 3.335-.041 4.066 1.046 2.831 4.162-9.285 23.429-13.11 47.784-11.952 72.922.154 3.337-.99 4.773-4.306 5.274-6.925 1.047-13.86 1.897-20.85 2.301-17.163.526-32.915-4.039-47.476-13.04-5.64-3.486-10.97-7.676-17.901-8.481-3.503-.406-2.013-2.872-1.629-4.561zm151.989 237.405c18.824.124 37.653-.18 56.472.145 17.61.304 31.686 10.643 34.573 25.569 2.256 11.665.651 23.586.844 35.392.035 2.125-1.34 2.875-3.265 2.877-11.661.008-23.322-.016-34.982.039-2.93.014-3.659-1.589-3.643-4.129.038-6.33.045-12.661-.035-18.991-.076-5.994-3.001-9.595-7.748-9.74-4.933-.151-8.117 3.586-8.197 9.798-.074 5.83-.262 11.674.048 17.488.238 4.463-1.492 5.695-5.782 5.673-28.486-.147-56.974-.076-85.461-.076-28.154-.004-56.308-.122-84.46.104-5.093.041-6.961-1.52-6.435-6.538.31-2.962.201-6.008-.076-8.982-.413-4.434-3.833-7.502-7.922-7.477-4.09.025-7.48 3.128-7.813 7.581-.273 3.646-.192 7.326-.119 10.989.056 2.82-.864 4.389-3.984 4.326-5.495-.111-10.994-.059-16.491-.046-2.197.005-3.492-.889-3.465-3.228.113-9.485-1.021-19.054.503-28.44 3.038-18.707 19.168-31.669 40.19-32.168 17.149-.407 34.316-.041 51.474-.148 3.009-.019 4.337 1.169 5.347 3.955 6.778 18.702 20.343 27.716 40.291 28.201 13.626.331 25.796-2.17 35.429-12.6 4.144-4.487 7.375-9.489 9.049-15.349.871-3.061 2.424-4.246 5.658-4.225zm-76.039-23.992c-.044-2.52.76-3.07 3.221-2.547 16.489 3.503 33.024 3.513 49.508.027 2.961-.626 3.43.404 3.331 2.911-.125 3.156-.03 6.32-.03 9.481h-.034c0 3.327.153 6.662-.028 9.979-.625 11.49-8.667 19.569-20.156 20.115-5.145.244-10.319.23-15.466.005-11.514-.504-19.657-8.489-20.221-20.013-.324-6.639-.007-13.307-.125-19.958zm106.127-56.369c-16.19 27.214-41.347 38.413-71.68 40.26-14.773.9-29.204-1.132-43.263-5.949-25.329-8.678-39.626-28.247-50.454-51.096-8.902-18.786-13.175-38.665-12.727-59.52.15-6.994.024-13.993.024-20.99h.122c0-10.828.041-21.656-.023-32.484-.021-3.517.816-4.69 4.202-2.405 24.744 16.705 51.945 20.396 80.761 14.826 4.213-.814 5.68.243 6.545 4.52 6.185 30.566 19.361 57.607 41.421 79.977 12.342 12.515 26.659 22.07 43.324 27.816 3.415 1.179 3.481 2.132 1.748 5.045zm-27.551-37.081c-28.239-23.81-41.398-55.494-45.309-91.552-4.2-39.12 2.806-75.703 25.682-108.274 15.636-22.263 36.481-37.424 63.914-41.593 29.975-4.555 55.566 5.228 76.964 26.062 22.088 21.506 33.458 48.482 38.18 78.524 2.364 15.036 2.931 30.147.782 45.282-3.923 36.25-17.187 68.071-45.69 91.872-34.318 28.654-80.336 28.504-114.523-.321zm153.454 37.536c-.004 11.984-.006 23.967-.002 35.951.001 2.056.163 4.091-2.93 3.998-15.619-.469-31.331 1.377-46.854-1.023-18.18-2.811-32.567-16.715-36.748-34.479-.628-2.667-1.101-4.859 2.743-5.369 27.567-3.657 49.453-17.594 67.876-37.734 2.593-2.835 11.969-3.717 14.937-1.439 1.479 1.135.941 2.74.947 4.144.053 11.984.031 23.968.031 35.951zm57.396-71.498c-15.85 11.193-33.826 16.13-53.281 15.385-5.821-.223-6.146-.693-3.285-5.47 5.063-8.454 8.909-17.485 12.801-26.499 7.012-20.839 11.198-42.179 10.303-64.236-1.853-45.677-17.23-85.492-51.698-116.754-8.192-7.43-17.412-13.448-27.548-17.873-3.889-1.698-3.807-2.827-.979-5.675 35.478-35.725 89.446-36.74 126.294-2.047 23.151 21.797 35.085 49.357 39.973 80.289 2.376 15.034 2.943 30.151.78 45.289-4.547 39.773-19.73 73.842-53.36 97.591z" />
      <path d="M219.68 88.959c-3.841-1.839-7.064-.523-10.01 2.141-14.584 13.187-25.413 28.922-32.141 47.419-2.177 5.985-.649 10.556 3.848 12.177 4.754 1.715 8.84-.482 11.035-6.454 5.914-16.089 15.019-29.955 27.998-41.224 2.065-1.793 3.582-3.937 3.712-7.459-.132-2.605-1.449-5.167-4.442-6.6zM124.132 258.1c.552-5.486-2.455-9.658-7.252-10.061-4.633-.389-8.032 2.831-8.678 8.224-.686 5.716-2.94 7.822-8.264 7.719-5.079-.098-7.05-2.077-7.714-7.745-.627-5.351-4.081-8.604-8.708-8.201-4.66.405-7.631 4.319-7.268 9.573.786 11.365 12.328 22.259 23.72 22.388 11.389.128 23.007-10.399 24.164-21.897z" />
    </svg>