<svg class="icon">
                        <svg viewBox="0 0 512 512" id="baby" xmlns="http://www.w3.org/2000/svg"><path d="M463.268 143.307C460.254 119.536 452 97.445 439.07 77.211c-1.781-2.787-1.595-4.595.826-6.788 3.578-3.239 6.976-6.696 10.253-10.243 3.482-3.769 3.408-8.427.096-11.594-3.141-3.004-7.67-3.013-11.249.236-2.958 2.685-5.601 5.717-8.569 8.391-1.121 1.01-2.088 3.904-4.145 1.873-1.57-1.55-4.044-2.879-3.102-6.19 2.681-9.419-1.309-13.267-11.117-10.86-3.184.781-4.573-1.677-6.134-3.315-1.834-1.925.848-2.809 1.799-3.788 6.153-6.334 12.471-12.508 18.677-18.792 4.339-4.393 4.745-9.264 1.186-12.711-3.424-3.317-8.122-2.907-12.338 1.244-6.411 6.314-12.927 12.539-19.028 19.143-3.245 3.513-5.619 4.001-9.957 1.316-65.433-40.507-151.221-31.376-206.135 22.524-44.474 43.654-88.419 87.853-132.216 132.188C15.796 212.362.881 252.219 0 297.372c.332 9.919.984 19.537 2.607 29.092 14.811 87.241 93.284 146.757 182.805 137.589 40.421-4.14 74.822-21.246 103.509-50.169 40.013-40.342 80.32-80.393 120.492-120.577 3.888-3.889 7.88-7.69 11.54-11.786 35.338-39.555 48.949-85.89 42.315-138.214zM150.156 449.143c-69.347-8.033-126.114-64.4-134.083-133.965-5.242-45.76 8.14-86.185 39.39-119.882 21.507-23.191 44.52-44.984 66.872-67.39.556-.558 1.25-.978 2.539-1.97-30.683 113.683-22.034 221.796 40.208 323.959-5.293.701-10.167-.2-14.926-.752zm150.421-69.836c-20.506 20.639-39.774 42.725-66.882 55.468-14.721 6.92-29.962 11.85-46.09 14.027-1.829.247-3.42.739-4.77-1.325-13.05-19.949-24.149-40.905-33.538-64.04 51.595 14.511 101.614 10.442 151.191-5.489.063.798.223 1.225.089 1.359zm132.675-142.723c-7.674 14.947-17.767 28.104-29.654 39.945-19.715 19.64-39.668 39.056-58.911 59.149-8.875 9.267-18.922 15.787-30.775 20.404-35.304 13.752-71.602 21.773-109.669 20.283-19.735-.772-39.04-3.985-57.662-10.844-3.04-1.12-4.886-2.7-5.914-5.951-14.237-45.001-19.231-91.054-16.214-138.079 2.488-38.778 10.206-76.448 23.253-113.058 2.287-6.417 5.562-11.834 10.525-16.595 12.145-11.647 23.837-23.765 35.896-35.503 9.966-9.7 21.318-17.562 33.627-24.022 1.695-.889 3.289-2.405 6.326-1.429-37.401 26.64-58.709 62.438-62.21 107.828-3.489 45.237 10.657 84.608 43.686 116.052 32.035 30.497 71.035 42.693 114.707 38.172 43.747-4.529 78.395-25.669 103.898-61.918 1.533 2.662-.152 4.091-.909 5.566zm-66.08 30.767c-78.486 35.864-169.125-15.458-180.204-101.337-8.77-67.983 42.075-133.985 109.935-142.807 5.969-.776 11.939-1.062 16.185-1.188 23.363-.06 43.544 5.42 62.531 15.632 2.851 1.534 4.215 2.556 1.247 5.619-3.377 3.486-2.974 8.144.174 11.161 3.236 3.102 7.949 3.008 11.61-.568 2.678-2.615 4.85-5.558 8.62-1.266 1.501 1.709 1.472 2.642-.065 4.034-1.355 1.228-2.697 2.511-3.821 3.945-2.699 3.445-2.433 8.099.673 10.849 3.331 2.948 6.936 2.871 10.501.372.943-.661 1.597-1.751 2.562-2.364 1.599-1.017 2.441-4.791 5.375-1.518 2.163 2.412 3.856 4.477.223 7.175-2.754 2.045-4.563 4.811-4.093 8.589.741 5.956 7.947 9.382 12.412 5.188 4.481-4.208 5.378-1.309 7.142 2.021 35.237 66.534 5.94 145.871-61.007 176.463z"></path><path d="M332.76 168.864c-11.523 3.756-22.06 2.182-31.196-6.009-10.758-9.645-14.093-21.341-9.269-35.193 2.038-5.853.174-10.26-4.688-11.799-4.477-1.418-8.586 1.14-10.479 6.692-1.675 4.912-2.676 9.959-2.394 15.454-.245 3.425.247 7.05 1.022 10.638 7.179 33.243 40.704 43.11 62.71 35.148 5.614-2.031 7.905-6.575 5.78-11.269-1.896-4.188-5.853-5.498-11.486-3.662zm70.523-30.771c-3.696-1.881-7.047-1.015-10.039 1.775-2.912 2.716-5.986 3.276-9.39.669-4.854-3.718-5.363-7.299-1.554-12.262 3.521-4.588 3.257-9.314-.684-12.256-3.922-2.928-8.624-1.923-12.097 2.661-3.334 4.402-4.721 9.452-4.808 15.923.35 8.258 3.449 16.023 12.392 20.074 9.184 4.161 18.201 3.472 26.382-2.606 5.546-4.119 5.33-11.164-.202-13.978zm-71.519-61.531c-3.907 2.563-7.07 2.071-10.23-1.086-3.223-3.22-3.374-6.409-.847-10.243 3.223-4.888 2.284-9.572-1.939-12.064-4.181-2.466-9.021-.979-11.752 3.969-4.517 8.185-4.469 16.616-.212 24.837 4.193 8.097 11.599 10.954 20.212 11.453 4.444.114 8.61-.864 12.482-2.993 5.28-2.904 7.119-7.618 4.717-11.928-2.47-4.43-7.241-5.349-12.431-1.945zm-68.746-2.144c-8.797-.131-16.028 6.818-16.227 15.596-.204 8.989 7 16.366 15.968 16.352a15.957 15.957 0 0015.98-15.85c.082-8.78-6.937-15.967-15.721-16.098zm111.704 95.99c-8.769.02-15.899 7.132-15.941 15.9-.042 8.789 6.99 15.945 15.777 16.055a15.937 15.937 0 0016.179-16.138c-.09-8.788-7.227-15.837-16.015-15.817z"></path></svg>
                    </svg>