<svg class="icon">
                        <svg viewBox="0 0 512 512" id="child" xmlns="http://www.w3.org/2000/svg"><path d="M464.061 377.615c-.24-35.626-16.11-62.861-45.436-82.506-3.25-2.177-4.388-3.551-.795-6.329 2.224-1.719 4.1-3.901 6.067-5.939 43.37-44.928 52.779-111.741 22.811-166.419-19.844-36.205-49.958-60.11-89.791-71.396-3.72-1.054-5.207-2.495-4.893-6.414.359-4.47.142-8.993.059-13.49-.102-5.519-3.176-9.03-7.829-9.12-4.833-.093-8.026 3.529-8.126 9.328-.066 3.831.069 7.668-.067 11.496-.051 1.433.859 3.878-1.837 3.735-2.122-.112-4.639.601-6.203-1.992-5.427-8.997-10.74-9.066-15.761-.188-1.618 2.86-4.329 2.198-6.56 2.142-2.461-.061-1.535-2.539-1.55-3.993-.091-8.831-.021-17.663-.057-26.494C304.068 3.717 301.13.045 296.169 0c-4.97-.045-8.021 3.652-8.046 9.91-.04 9.831-.157 19.666.069 29.492.076 3.323-1.137 4.63-4.215 5.415-15.81 4.036-30.361 10.904-43.858 20.039-2.328 1.576-4.621 3.204-8.016 5.562v-6.515c0-16.996.008-33.993-.002-50.99-.006-10.727-4.521-13.676-14.577-9.53-23.555 9.71-47.118 19.399-70.642 29.182-2.917 1.213-5.479 1.602-8.56.247-22.865-10.057-45.815-19.917-68.705-29.915-8.119-3.546-13.473-.213-13.492 8.678-.038 17.996-.115 35.994.072 53.988.039 3.703-1.173 5.994-3.967 8.412C17.761 103.808-.576 141.398.281 187.199c.74 39.536 16.589 72.904 44.828 100.445 5.436 5.301 5.017 4.2-.632 8.104C16.288 315.232.6 341.788.188 376.398c-.368 30.989-.085 61.986-.069 92.98.004 7.882 2.645 10.573 10.424 10.573 147.636.009 295.273.008 442.909-.002 8.11-.001 10.642-2.594 10.646-10.854.015-30.493.169-60.988-.037-91.48zM287.572 60.267c.919 1.346.369 2.893.569 4.336.607 4.37 3.93 7.393 8.09 7.336 4.165-.056 7.41-3.154 7.83-7.569.126-1.322.194-2.686.019-3.994-.593-4.426 2.843-3.531 5.195-3.991 3.403-.666 2.764 1.852 2.82 3.746.244 8.239 2.776 11.916 8.164 11.811 5.248-.102 7.644-3.704 7.885-11.609.053-1.737-.965-4.485 2.594-3.968 2.597.378 6.106-.295 5.394 4.332-.175 1.138-.087 2.336.014 3.494.389 4.452 3.536 7.6 7.672 7.744 4.333.151 7.746-3.002 8.26-7.672.143-1.303.187-2.618.278-3.958C401.76 71.069 452 120.01 447.869 192.082c-3.825 66.72-57.828 118.46-123.698 119.923-68.711 1.526-123.152-47.113-131.001-111.346-8.798-71.999 38.89-127.65 94.402-140.392zm32.405 355.685c-52.321-.641-77.346-53.073-56.65-94.471 1.648-3.297 3.416-4.068 7.056-2.713 33.022 12.295 66.152 12.338 99.196.091 3.8-1.408 5.672-.712 7.436 2.852 20.49 41.388-4.592 93.78-57.038 94.241zM165.483 42.154c15.371-6.388 30.791-12.661 46.135-19.111 3.302-1.388 4.643-1.299 4.57 2.877-.213 12.16-.1 24.326-.06 36.489.008 2.518.013 4.313-3.487 2.841-16.263-6.843-32.597-13.515-48.897-20.268-.401-.166-.702-.573-1.035-.855.436-1.515 1.793-1.565 2.774-1.973zM75.02 22.76c15.824 6.901 31.679 13.732 48.95 21.202-17.309 7.482-33.179 14.312-49.014 21.22-2.362 1.031-2.873.213-2.865-2.019.044-12.825.048-25.651-.004-38.476-.01-2.381.712-2.896 2.933-1.927zM39.184 257.83C1.988 205.944 10.261 132.703 57.06 89.351c1.935-1.793 3.626-3.719 6.897-2.844 2.087.559 4.156-.913 6.135-1.77a47617.83 47617.83 0 0060.918-26.411c7.557-3.284 15.031-3.365 22.697-.157 19.342 8.092 38.757 16.01 58.136 24.012 1.498.618 2.946 1.356 4.981 2.299-8.809 9.129-15.748 19.047-22.227 29.331-2.067 3.28-3.487 6.812-4.965 10.296-1.495 3.522-3.882 4.176-7.152 3.771-3.365-.417-5.514-2.185-6.175-5.558-.191-.973-.106-1.996-.246-2.982-.658-4.631-4.22-7.671-8.547-7.335-4.328.336-7.361 3.841-7.387 8.533-.05 8.95 7.555 19.043 17.476 22.172 3.777 1.191 4.049 2.714 3.099 6.018-2.892 10.058-3.898 20.46-4.811 31.023-2.565-.546-3.936-2.342-5.668-3.511-20.938-14.143-47.553-9.658-63.732 10.789-15.533 19.63-13.288 46.793 5.282 63.589.974.881 2.154 1.533 3.238 2.292-1.795-4.887-2.399-9.807-2.164-14.75-.234 4.943.37 9.862 2.165 14.747 5.747 12.572 15.756 18.394 29.351 18.326 13.407-.067 23.205-5.966 28.851-18.326 5.948-3.471 9.367-9.278 13.417-14.963 2.162 4.342 4.073 8.372 6.149 12.314 6.406 12.16 14.213 23.37 24.06 32.958 3.706 3.609 2.708 5.073-.983 7.459-16.192 10.47-33.699 17.669-52.829 19.9-51.196 5.971-93.528-10.458-123.842-52.743zm134.707-29.562c-1.678-2.851-3.249-5.772-5.063-8.535-2.029-3.09-4.93-4.864-8.737-4.905-1.679-9.293-7.659-14.852-15.979-14.854-8.324-.002-14.256 5.511-15.983 14.853-5.894.07-8.643 4.259-11.229 8.621-.927 1.564-1.721 3.206-2.575 4.814v.001c-4.16-12.408-3.08-24.156 5.776-34.124 8.658-9.745 20.04-11.883 32.399-9.166 18.663 4.103 28.222 23.609 21.391 43.295zm-45.324 16.634c-2.13-6.7-.504-12.219 5.177-16.461 6.909 4.695 13.817 4.659 20.727.001-.646-1.988-1.064-3.641-1.216-5.05.152 1.409.57 3.061 1.216 5.049 5.722 4.229 7.291 9.762 5.169 16.454-.789 1.766-1.714 3.392-2.779 4.838 1.065-1.447 1.99-3.072 2.779-4.838-10.357 4.008-20.714 3.981-31.073.007zm24.624-22.522c.002.116.017.244.023.363-.006-.12-.021-.247-.023-.363zm1.222-3.876zm-41.423 17.504c-.011.121-.018.242-.028.362.01-.12.017-.241.028-.362zm-86.066 228.05c-10.795-.179-10.805.022-10.811-10.692-.007-12.664-.002-25.328-.002-37.992.015-13.997-.507-28.018.122-41.987 1.354-30.06 14.896-53.03 41.33-68.001.868-.491 1.763-.96 2.695-1.306 1.323-.491 2.986-2.029 4.017-.381 1.041 1.666-1.165 2.453-2.127 3.405-19.944 19.715-30.247 43.404-30.076 71.614.162 26.66-.049 53.323.122 79.983.025 4.102-1.058 5.427-5.27 5.357zm149.268-34.55c-.256 10.16-.184 20.332-.03 30.496.045 3.004-.789 4.021-3.922 4.013-39.999-.096-79.998-.098-119.997.002-3.313.008-4.204-1.061-4.191-4.271.112-28.999-.244-58.003.204-86.996.276-17.828 6.406-33.901 17.632-47.896.728-.908 1.535-1.757 2.354-2.585.335-.339.799-.552 2.31-1.561-4.05 11.193-6.578 21.447-6.469 32.244.379 37.778 31.004 72.616 68.364 78.064 13.563 1.978 26.572.511 39.234-4.383 3.314-1.278 4.617-1.326 4.511 2.873zm-.113-51.111c.127 8.491-.072 16.987.088 25.476.053 2.849-.79 4.472-3.461 5.795-24.21 11.985-56.367 6.595-74.863-12.701-19.133-19.961-23.411-52.193-10.189-76.085 1.421-2.568 2.746-3.619 5.869-2.434 32.569 12.356 65.328 12.68 98.211 1.195a10.644 10.644 0 011.916-.496c.29-.043.617.165 1.233.351-4.378 6.939-8.718 13.802-11.786 21.376-4.88 12.049-7.212 24.527-7.018 37.523zm25.685 85.674c-9.636-.34-9.651-.079-9.655-9.959-.006-13.15-.001-26.3-.001-39.451.01-13.65-.47-27.32.108-40.945 1.284-30.244 14.854-53.341 41.465-68.324 1.898-1.068 4.722-3.603 6.16-1.757 1.85 2.377-1.928 3.55-3.325 5.002-18.494 19.214-28.445 41.889-28.412 68.745.034 26.8-.143 53.601.136 80.398.054 5.219-1.559 6.465-6.476 6.291zm208.76-.031c-60.32-.13-120.64-.137-180.96.008-4.535.011-5.567-1.475-5.542-5.731.166-27.993-.107-55.989.159-83.98.175-18.403 6.162-34.96 17.669-49.414.993-1.247 1.83-2.806 3.818-3.157-13.446 42.334-1.882 76.314 35.837 99.32 28.145 17.166 57.637 15.141 84.036-4.344 32.409-23.922 41.859-56.152 28.791-95.033 2.163.439 3.092 2.02 4.118 3.312 11.379 14.326 17.368 30.731 17.566 48.946.306 28.157-.012 56.32.182 84.48.03 4.458-1.332 5.603-5.674 5.593zm37.667-5.035c.023 4.022-1.32 5.06-5.151 5.038-10.923-.064-10.929.087-10.933-10.654-.005-12.983-.001-25.967-.001-42.01-.581-13.565 1.182-30.249-.828-46.824-2.684-22.137-12.611-40.781-28.267-56.494-.235-.236-.538-.426-.708-.7-.781-1.257-3.606-1.853-2.116-3.746 1.246-1.584 3.076.191 4.476.847 5.451 2.555 10.482 5.833 15.058 9.725 18.149 15.438 27.716 35.308 28.225 58.932.617 28.616.083 57.257.245 85.886z"></path><path d="M276.038 197.737c-8.582 19.611-1.922 44.158 14.97 55.171 5.661 12.338 15.433 18.245 28.852 18.313 13.605.069 23.6-5.743 29.346-18.316 11.773-8.612 18.001-20.448 18.776-34.773 1.214-22.455-15.596-43.899-37.731-49.024-21.663-5.015-44.847 7.228-54.213 28.629zm13.331 49.06zm-.474-9.643zm.263-2.688zm.648-3.811c.055-.267.107-.535.166-.802-.059.267-.111.534-.166.802zm11.874-41.418c12.056-7.9 29.24-6.864 40.034 2.414 9.617 8.266 12.788 22.504 8.164 36.656-1.667-2.856-3.22-5.786-5.031-8.547-2.026-3.089-4.924-4.881-8.739-4.913-7.012 2.924-8.322 5.92-5.698 13.029 5.131 4.645 7.803 10.036 5.173 17.037-1.319 2.999-3.016 5.593-5.148 7.556 2.131-1.963 3.828-4.557 5.147-7.555-10.322 3.885-20.643 3.983-30.964 0-2.566-6.989.057-12.396 5.191-17.039 6.821 5.544 13.779 5.544 20.601.001-2.624-7.108-1.314-10.104 5.698-13.028-1.831-9.426-7.677-14.857-15.997-14.861-8.34-.003-14.201 5.442-15.983 14.85-5.912.062-8.642 4.286-11.236 8.643-.929 1.561-1.705 3.213-2.551 4.824v.001c-5.154-15.707-.653-31.211 11.339-39.068zm26.392 65.015zm-55.875-110.295c11.408-.067 22.959-10.834 23.858-22.238.414-5.253-2.483-9.205-7.117-9.706-4.629-.5-8.198 2.751-8.833 8.047-.706 5.892-2.785 7.919-8.086 7.881-5.244-.037-7.155-1.985-7.915-8.068-.629-5.033-4.038-8.191-8.512-7.885-4.668.319-7.742 4.2-7.462 9.421.617 11.485 12.499 22.617 24.067 22.548zm87.67 0c11.39.129 23.007-10.399 24.165-21.897.552-5.486-2.455-9.658-7.252-10.061-4.633-.389-8.032 2.831-8.678 8.224-.686 5.716-2.94 7.822-8.264 7.719-5.079-.098-7.05-2.077-7.714-7.745-.627-5.351-4.081-8.604-8.708-8.201-4.66.405-7.631 4.319-7.268 9.573.784 11.365 12.327 22.259 23.719 22.388zm-265.324-.04c11.269.856 23.104-8.759 25.303-20.557 1.124-6.034-1.64-10.676-6.748-11.333-4.902-.63-8.245 2.657-9.025 8.873-.624 4.972-2.915 7.015-7.895 7.042-5.363.029-7.156-1.837-8.082-8.407-.66-4.687-4.054-7.762-8.346-7.564-4.488.207-7.687 3.883-7.638 8.776.106 10.864 11.194 22.316 22.431 23.17z"></path></svg>
                    </svg>